<svg width="175" height="48" viewBox="0 0 175 48" fill="none" xmlns="http://www.w3.org/2000/svg">
<path d="M174.049 31.744C174.049 35.562 171.565 38.46 165.401 38.46C161.951 38.46 159.145 37.678 157.397 36.758V32.572C159.375 33.722 162.687 34.826 165.585 34.826C168.621 34.826 170.185 33.584 170.185 31.79C170.185 30.042 168.851 29.03 164.481 27.972C159.375 26.73 157.213 24.752 157.213 20.98C157.213 16.978 160.295 14.54 165.539 14.54C168.529 14.54 171.243 15.276 172.945 16.196V20.29C170.185 18.91 167.931 18.174 165.493 18.174C162.595 18.174 161.031 19.186 161.031 20.98C161.031 22.59 162.135 23.602 166.367 24.614C171.473 25.856 174.049 27.742 174.049 31.744Z" fill="white"/>
<path d="M132.652 28.478V15H136.608V28.892C136.608 33.032 138.264 34.872 142.036 34.872C145.716 34.872 148.246 32.434 148.246 27.788V15H152.202V38H148.246V34.228C146.774 36.942 144.06 38.46 140.978 38.46C135.688 38.46 132.652 34.826 132.652 28.478Z" fill="white"/>
<path d="M128.597 33.86V37.402C127.217 38.138 125.101 38.46 122.985 38.46C114.797 38.46 110.979 33.492 110.979 26.454C110.979 19.508 114.797 14.54 122.985 14.54C125.055 14.54 126.665 14.816 128.459 15.644V19.324C126.987 18.634 125.423 18.22 123.261 18.22C117.281 18.22 114.843 21.992 114.843 26.454C114.843 30.916 117.327 34.688 123.353 34.688C125.699 34.688 127.171 34.366 128.597 33.86Z" fill="white"/>
<path d="M96.905 38.46C90.005 38.46 85.957 33.354 85.957 26.454C85.957 19.554 90.005 14.54 96.905 14.54C103.759 14.54 107.761 19.554 107.761 26.454C107.761 33.354 103.759 38.46 96.905 38.46ZM96.905 18.22C91.983 18.22 89.821 22.084 89.821 26.454C89.821 30.824 91.983 34.78 96.905 34.78C101.781 34.78 103.897 30.824 103.897 26.454C103.897 22.084 101.781 18.22 96.905 18.22Z" fill="white"/>
<path d="M81.9418 26.7298H68.2338V37.9998H64.0938V7.77783H83.5058V11.7338H68.2338V22.7738H81.9418V26.7298Z" fill="white"/>
<path d="M0 12C0 5.37258 5.37258 0 12 0H36C42.6274 0 48 5.37258 48 12V36C48 42.6274 42.6274 48 36 48H12C5.37258 48 0 42.6274 0 36V12Z" fill="#FB9700"/>
<path d="M41.41 24.4082C38.1463 21.1445 32.8417 21.1792 29.6127 24.4082L26.8954 27.1255C25.3951 28.6258 22.9582 28.6258 21.4579 27.1255L19.2002 24.8678L13.3001 30.7679L15.5578 33.0256C20.316 37.7838 28.0344 37.7838 32.7926 33.0256L41.41 24.4082ZM6.9375 23.5957C10.2012 26.8594 15.4393 26.8912 18.7029 23.6275L21.455 20.8755C22.9553 19.3752 25.3922 19.3752 26.8925 20.8755L29.1502 23.1332L35.0503 17.2331L32.7926 14.9754C28.0344 10.2172 20.316 10.2172 15.5578 14.9754L6.94039 23.5928L6.9375 23.5957Z" fill="#101214"/>
</svg>
