<svg width="110" height="137" viewBox="0 0 110 137" fill="none" xmlns="http://www.w3.org/2000/svg">
<path d="M109.955 121.244C109.955 125.062 107.471 127.96 101.307 127.96C97.8574 127.96 95.0514 127.178 93.3034 126.258V122.072C95.2814 123.222 98.5934 124.326 101.491 124.326C104.527 124.326 106.091 123.084 106.091 121.29C106.091 119.542 104.757 118.53 100.387 117.472C95.2814 116.23 93.1194 114.252 93.1194 110.48C93.1194 106.478 96.2014 104.04 101.445 104.04C104.435 104.04 107.149 104.776 108.851 105.696V109.79C106.091 108.41 103.837 107.674 101.399 107.674C98.5014 107.674 96.9374 108.686 96.9374 110.48C96.9374 112.09 98.0414 113.102 102.273 114.114C107.379 115.356 109.955 117.242 109.955 121.244Z" fill="#101214"/>
<path d="M68.5591 117.978V104.5H72.5151V118.392C72.5151 122.532 74.1711 124.372 77.9431 124.372C81.6231 124.372 84.1531 121.934 84.1531 117.288V104.5H88.1091V127.5H84.1531V123.728C82.6811 126.442 79.9671 127.96 76.8851 127.96C71.5951 127.96 68.5591 124.326 68.5591 117.978Z" fill="#101214"/>
<path d="M64.5033 123.36V126.902C63.1233 127.638 61.0073 127.96 58.8913 127.96C50.7033 127.96 46.8853 122.992 46.8853 115.954C46.8853 109.008 50.7033 104.04 58.8913 104.04C60.9613 104.04 62.5713 104.316 64.3653 105.144V108.824C62.8933 108.134 61.3293 107.72 59.1673 107.72C53.1873 107.72 50.7493 111.492 50.7493 115.954C50.7493 120.416 53.2333 124.188 59.2593 124.188C61.6053 124.188 63.0773 123.866 64.5033 123.36Z" fill="#101214"/>
<path d="M32.8118 127.96C25.9118 127.96 21.8638 122.854 21.8638 115.954C21.8638 109.054 25.9118 104.04 32.8118 104.04C39.6658 104.04 43.6678 109.054 43.6678 115.954C43.6678 122.854 39.6658 127.96 32.8118 127.96ZM32.8118 107.72C27.8898 107.72 25.7278 111.584 25.7278 115.954C25.7278 120.324 27.8898 124.28 32.8118 124.28C37.6878 124.28 39.8038 120.324 39.8038 115.954C39.8038 111.584 37.6878 107.72 32.8118 107.72Z" fill="#101214"/>
<path d="M17.848 116.23H4.14V127.5H0V97.2778H19.412V101.234H4.14V112.274H17.848V116.23Z" fill="#101214"/>
<path d="M16.7205 18.75C16.7205 8.39466 25.1151 0 35.4705 0H72.9705C83.3258 0 91.7205 8.39466 91.7205 18.75V56.25C91.7205 66.6053 83.3258 75 72.9705 75H35.4705C25.1151 75 16.7205 66.6053 16.7205 56.25V18.75Z" fill="#FB9700"/>
<path d="M81.4235 38.1378C76.324 33.0383 68.0356 33.0925 62.9903 38.1378L58.7445 42.3836C56.4003 44.7278 52.5926 44.7278 50.2484 42.3836L46.7207 38.8559L37.5019 48.0748L41.0295 51.6024C48.4642 59.0371 60.5242 59.0371 67.9589 51.6024L81.4235 38.1378ZM27.5603 36.8682C32.6598 41.9677 40.8443 42.0174 45.9438 36.9179L50.2438 32.6179C52.5881 30.2736 56.3958 30.2736 58.74 32.6179L62.2676 36.1455L71.4865 26.9267L67.9589 23.399C60.5242 15.9643 48.4642 15.9643 41.0295 23.399L27.5648 36.8637L27.5603 36.8682Z" fill="#101214"/>
</svg>
