<svg width="517" height="75" viewBox="0 0 517 75" fill="none" xmlns="http://www.w3.org/2000/svg">
<path d="M503.826 63.528H501.25L492.924 42H497.156L504.516 61.688L511.876 42H516.108L507.414 64.264C504.838 70.842 503.366 74.246 497.524 74.246C495.546 74.246 494.442 74.062 493.292 73.602V70.198C494.626 70.612 496.144 70.75 497.294 70.75C500.514 70.75 501.94 68.542 503.826 63.528Z" fill="#101214"/>
<path d="M483.956 51.4301V65.0001H480.092V42.0001H483.956V46.0481C485.29 43.3341 487.59 41.4021 492.098 41.6781V45.5421C487.038 45.0361 483.956 46.5541 483.956 51.4301Z" fill="#101214"/>
<path d="M465.261 45.128C461.075 45.128 458.959 47.842 458.545 51.844H471.379C471.149 47.566 469.217 45.128 465.261 45.128ZM474.093 64.08C472.207 65.092 469.309 65.46 466.963 65.46C458.361 65.46 454.589 60.492 454.589 53.454C454.589 46.508 458.453 41.54 465.445 41.54C472.529 41.54 475.381 46.462 475.381 53.454V55.248H458.591C459.143 59.158 461.673 61.688 467.101 61.688C469.769 61.688 472.023 61.182 474.093 60.446V64.08Z" fill="#101214"/>
<path d="M444.517 65H439.227L430.303 42H434.443L441.895 61.642L449.301 42H453.441L444.517 65Z" fill="#101214"/>
<path d="M418.324 65.46C411.424 65.46 407.376 60.354 407.376 53.454C407.376 46.554 411.424 41.54 418.324 41.54C425.178 41.54 429.18 46.554 429.18 53.454C429.18 60.354 425.178 65.46 418.324 65.46ZM418.324 45.22C413.402 45.22 411.24 49.084 411.24 53.454C411.24 57.824 413.402 61.78 418.324 61.78C423.2 61.78 425.316 57.824 425.316 53.454C425.316 49.084 423.2 45.22 418.324 45.22Z" fill="#101214"/>
<path d="M404.24 60.86V64.402C402.86 65.138 400.744 65.46 398.628 65.46C390.44 65.46 386.622 60.492 386.622 53.454C386.622 46.508 390.44 41.54 398.628 41.54C400.698 41.54 402.308 41.816 404.102 42.644V46.324C402.63 45.634 401.066 45.22 398.904 45.22C392.924 45.22 390.486 48.992 390.486 53.454C390.486 57.916 392.97 61.688 398.996 61.688C401.342 61.688 402.814 61.366 404.24 60.86Z" fill="#101214"/>
<path d="M383.432 58.744C383.432 62.562 380.948 65.46 374.784 65.46C371.334 65.46 368.528 64.678 366.78 63.758V59.572C368.758 60.722 372.07 61.826 374.968 61.826C378.004 61.826 379.568 60.584 379.568 58.79C379.568 57.042 378.234 56.03 373.864 54.972C368.758 53.73 366.596 51.752 366.596 47.98C366.596 43.978 369.678 41.54 374.922 41.54C377.912 41.54 380.626 42.276 382.328 43.196V47.29C379.568 45.91 377.314 45.174 374.876 45.174C371.978 45.174 370.414 46.186 370.414 47.98C370.414 49.59 371.518 50.602 375.75 51.614C380.856 52.856 383.432 54.742 383.432 58.744Z" fill="#101214"/>
<path d="M356.898 35.9285C356.898 34.1805 358.048 33.1685 359.658 33.1685C361.268 33.1685 362.418 34.1805 362.418 35.9285C362.418 37.6765 361.268 38.6885 359.658 38.6885C358.048 38.6885 356.898 37.6765 356.898 35.9285ZM357.634 65.0005V42.0005H361.59V65.0005H357.634Z" fill="#101214"/>
<path d="M338.516 38.7343H331.708V61.0443H338.746C345.646 61.0443 349.096 57.4103 349.096 50.0963C349.096 42.7363 345.83 38.7343 338.516 38.7343ZM327.568 65.0003V34.7783H338.7C348.498 34.7783 353.236 40.8963 353.236 49.9583C353.236 59.1123 348.452 65.0003 338.7 65.0003H327.568Z" fill="#101214"/>
<path d="M307.45 57.87C307.45 59.894 308.646 61.274 311.084 61.274C312.004 61.274 312.878 61.09 313.568 60.952V64.77C312.878 64.954 312.096 65.138 310.9 65.138C305.978 65.138 303.586 62.24 303.586 57.962V45.68H299.86V42H303.586V37.124H307.45V42H313.568V45.68H307.45V57.87Z" fill="#101214"/>
<path d="M297.46 60.86V64.402C296.08 65.138 293.964 65.46 291.848 65.46C283.66 65.46 279.842 60.492 279.842 53.454C279.842 46.508 283.66 41.54 291.848 41.54C293.918 41.54 295.528 41.816 297.322 42.644V46.324C295.85 45.634 294.286 45.22 292.124 45.22C286.144 45.22 283.706 48.992 283.706 53.454C283.706 57.916 286.19 61.688 292.216 61.688C294.562 61.688 296.034 61.366 297.46 60.86Z" fill="#101214"/>
<path d="M255.696 55.478V42H259.652V55.892C259.652 60.032 261.308 61.872 265.08 61.872C268.76 61.872 271.29 59.434 271.29 54.788V42H275.246V65H271.29V61.228C269.818 63.942 267.104 65.46 264.022 65.46C258.732 65.46 255.696 61.826 255.696 55.478Z" fill="#101214"/>
<path d="M233.216 53.5002C233.216 59.0202 235.424 61.7802 239.518 61.7802C243.06 61.7802 246.234 59.5262 246.234 54.4202V52.5802C246.234 47.4742 243.336 45.2202 239.978 45.2202C235.516 45.2202 233.216 48.1642 233.216 53.5002ZM246.234 65.0002V60.8602C244.762 63.8962 242.002 65.4602 238.46 65.4602C232.342 65.4602 229.26 60.2622 229.26 53.5002C229.26 47.0142 232.48 41.5402 238.92 41.5402C242.278 41.5402 244.854 43.0582 246.234 46.0482V32.3862H250.19V65.0002H246.234Z" fill="#101214"/>
<path d="M215.187 65.46C208.287 65.46 204.239 60.354 204.239 53.454C204.239 46.554 208.287 41.54 215.187 41.54C222.041 41.54 226.043 46.554 226.043 53.454C226.043 60.354 222.041 65.46 215.187 65.46ZM215.187 45.22C210.265 45.22 208.103 49.084 208.103 53.454C208.103 57.824 210.265 61.78 215.187 61.78C220.063 61.78 222.179 57.824 222.179 53.454C222.179 49.084 220.063 45.22 215.187 45.22Z" fill="#101214"/>
<path d="M194.524 51.4301V65.0001H190.66V42.0001H194.524V46.0481C195.858 43.3341 198.158 41.4021 202.666 41.6781V45.5421C197.606 45.0361 194.524 46.5541 194.524 51.4301Z" fill="#101214"/>
<path d="M187.02 44.8523C187.02 51.4303 183.34 55.1103 175.796 55.1103H169.77V65.0003H165.63V34.7783H175.796C183.34 34.7783 187.02 38.6423 187.02 44.8523ZM175.336 51.1543C180.672 51.3383 182.742 48.8083 182.742 44.9443C182.742 41.2643 180.672 38.7343 175.336 38.7343H169.77V51.1543H175.336Z" fill="#101214"/>
<path d="M133.535 53.5C133.535 59.02 135.743 61.78 139.837 61.78C143.379 61.78 146.553 59.526 146.553 54.42V52.58C146.553 47.474 143.655 45.22 140.297 45.22C135.835 45.22 133.535 48.164 133.535 53.5ZM146.553 65V60.86C145.081 63.896 142.321 65.46 138.779 65.46C132.661 65.46 129.579 60.262 129.579 53.5C129.579 47.014 132.799 41.54 139.239 41.54C142.597 41.54 145.173 43.058 146.553 46.048V42H150.509V65H146.553Z" fill="#101214"/>
<path d="M119.864 51.4301V65.0001H116V42.0001H119.864V46.0481C121.198 43.3341 123.498 41.4021 128.006 41.6781V45.5421C122.946 45.0361 119.864 46.5541 119.864 51.4301Z" fill="#101214"/>
<path d="M105.336 35.9285C105.336 34.1805 106.486 33.1685 108.096 33.1685C109.706 33.1685 110.856 34.1805 110.856 35.9285C110.856 37.6765 109.706 38.6885 108.096 38.6885C106.486 38.6885 105.336 37.6765 105.336 35.9285ZM106.072 65.0005V42.0005H110.028V65.0005H106.072Z" fill="#101214"/>
<path d="M96.43 56.0763V34.7783H100.57V55.8003C100.57 61.3663 98.132 65.1843 92.428 65.1843C90.266 65.1843 88.61 64.8163 87.46 64.4023V60.4003C88.702 60.9063 90.22 61.1823 91.738 61.1823C95.234 61.1823 96.43 59.0663 96.43 56.0763Z" fill="#101214"/>
<path d="M155.186 11.9857C155.186 14.5147 156.33 16.5017 160.967 17.4049C163.676 18.007 164.278 18.4285 164.278 19.3316C164.278 20.2348 163.676 20.7767 161.749 20.7767C159.522 20.7767 156.872 19.994 155.126 18.9704V23.0648C156.511 23.7271 158.317 24.5099 161.749 24.5099C166.566 24.5099 168.433 22.3423 168.433 19.2112M168.433 19.2714C168.433 16.2608 166.867 14.8759 162.352 13.9125C159.883 13.3706 159.281 12.8287 159.281 12.046C159.281 11.0826 160.184 10.6611 161.81 10.6611C163.797 10.6611 165.723 11.2632 167.59 12.1062V8.19237C166.265 7.53004 164.278 7.04834 161.93 7.04834C157.474 7.04834 155.186 8.97513 155.186 12.1062" fill="#101214"/>
<path d="M216.844 7.16846V24.329H220.517V11.2629L222.022 14.695L227.2 24.329H231.777V7.16846H228.164V18.2475L226.779 14.9961L222.624 7.16846H216.844Z" fill="#101214"/>
<path d="M193.602 7.16846H189.628V24.329H193.602V7.16846Z" fill="#101214"/>
<path d="M185.052 19.2109C185.052 16.2003 183.486 14.8154 178.97 13.852C176.501 13.3101 175.899 12.7682 175.899 11.9854C175.899 11.022 176.802 10.6005 178.428 10.6005C180.415 10.6005 182.342 11.2027 184.209 12.0456V8.13183C182.884 7.46949 180.897 6.98779 178.549 6.98779C174.093 6.98779 171.805 8.91459 171.805 12.0456C171.805 14.5745 172.949 16.5615 177.585 17.4647C180.295 18.0669 180.897 18.4883 180.897 19.3915C180.897 20.2947 180.295 20.8366 178.368 20.8366C176.14 20.8366 173.491 20.0539 171.745 19.0302V23.1247C173.13 23.787 174.936 24.5698 178.368 24.5698C183.125 24.5698 185.052 22.4021 185.052 19.2109Z" fill="#101214"/>
<path d="M124.237 7.16846V24.329H132.426L133.691 20.5958H128.211V7.16846H124.237Z" fill="#101214"/>
<path d="M108.04 7.16846V10.8414H112.436V24.329H116.47V10.8414H121.227V7.16846H108.04Z" fill="#101214"/>
<path d="M102.2 7.16846H96.9611L91.0001 24.329H95.5763L96.4192 21.4388C97.4428 21.7398 98.5267 21.9205 99.6105 21.9205C100.694 21.9205 101.778 21.7398 102.802 21.4388L103.645 24.329H108.221C108.161 24.329 102.2 7.16846 102.2 7.16846ZM99.5503 18.3077C98.7675 18.3077 98.045 18.1873 97.3826 18.0067L99.5503 10.5403L101.718 18.0067C101.056 18.1873 100.333 18.3077 99.5503 18.3077Z" fill="#101214"/>
<path d="M146.576 7.16846H141.337L135.316 24.329H139.892L140.735 21.4388C141.759 21.7398 142.843 21.9205 143.927 21.9205C145.01 21.9205 146.094 21.7398 147.118 21.4388L147.961 24.329H152.537L146.576 7.16846ZM143.927 18.3077C143.144 18.3077 142.421 18.1873 141.759 18.0067L143.927 10.5403L146.094 18.0067C145.432 18.1873 144.709 18.3077 143.927 18.3077Z" fill="#101214"/>
<path d="M207.992 7.16846H202.754L196.793 24.329H201.369L202.212 21.4388C203.236 21.7398 204.319 21.9205 205.403 21.9205C206.487 21.9205 207.571 21.7398 208.595 21.4388L209.438 24.329H214.014L207.992 7.16846ZM205.403 18.3077C204.621 18.3077 203.898 18.1873 203.236 18.0067L205.403 10.5403L207.571 18.0067C206.909 18.1873 206.126 18.3077 205.403 18.3077Z" fill="#101214"/>
<path d="M0 18.75C0 8.39466 8.39466 0 18.75 0H56.25C66.6053 0 75 8.39466 75 18.75V56.25C75 66.6053 66.6053 75 56.25 75H18.75C8.39466 75 0 66.6053 0 56.25V18.75Z" fill="#C97CF4"/>
<g clip-path="url(#clip0_1_6957)">
<path d="M40.8938 16.3311C46.8559 18.08 52.8764 18.08 58.8384 16.3311C59.3645 16.2145 59.7152 16.5643 59.5983 17.0889C57.9032 23.2103 57.9032 28.8653 59.5983 34.9867C59.7152 35.4531 59.3645 35.8612 58.8384 35.6863C52.8764 34.0539 46.8559 34.0539 40.8938 35.6863C40.4262 35.8612 40.0171 35.4531 40.1924 34.9867C41.7706 28.8653 41.7706 23.2103 40.1924 17.0889C40.0171 16.5643 40.4262 16.2145 40.8938 16.3311ZM43.2904 38.0183V39.0093C43.2904 43.6149 40.0755 46.9963 36.1008 46.9963C32.1261 46.9963 28.9698 43.7898 28.9698 39.8255C28.9698 35.8612 32.1846 32.7131 36.6853 32.7131H37.8544V18.7796C37.2699 18.7213 36.6853 18.7213 36.1008 18.7213C24.4105 18.7213 14.9414 28.1657 14.9414 39.8838C14.9414 51.6019 24.4105 60.988 36.1008 60.988C47.7911 60.988 57.3187 51.5436 57.3187 39.8838V38.0183H43.2904Z" fill="#101214"/>
</g>
<defs>
<clipPath id="clip0_1_6957">
<rect width="44.6797" height="44.6797" fill="white" transform="translate(14.9414 16.3086)"/>
</clipPath>
</defs>
</svg>
