<svg width="141" height="164" viewBox="0 0 141 164" fill="none" xmlns="http://www.w3.org/2000/svg">
<path d="M119.753 134.128C115.567 134.128 113.451 136.842 113.037 140.844H125.871C125.641 136.566 123.709 134.128 119.753 134.128ZM128.585 153.08C126.699 154.092 123.801 154.46 121.455 154.46C112.853 154.46 109.081 149.492 109.081 142.454C109.081 135.508 112.945 130.54 119.937 130.54C127.021 130.54 129.873 135.462 129.873 142.454V144.248H113.083C113.635 148.158 116.165 150.688 121.593 150.688C124.261 150.688 126.515 150.182 128.585 149.446V153.08Z" fill="#101214"/>
<path d="M89.3564 141.212V154H85.4004V140.108C85.4004 135.968 83.7444 134.128 79.9724 134.128C76.2924 134.128 73.7624 136.566 73.7624 141.212V154H69.8064V131H73.7624V134.772C75.2344 132.058 77.9484 130.54 81.0304 130.54C84.9404 130.54 87.6084 132.518 88.7584 136.152C90.0464 132.61 93.1284 130.54 96.9464 130.54C102.098 130.54 104.95 134.036 104.95 140.522V154H100.994V141.212C100.994 136.474 99.3384 134.128 95.5664 134.128C91.8864 134.128 89.3564 136.566 89.3564 141.212Z" fill="#101214"/>
<path d="M54.3528 154.46C47.4528 154.46 43.4048 149.354 43.4048 142.454C43.4048 135.554 47.4528 130.54 54.3528 130.54C61.2068 130.54 65.2088 135.554 65.2088 142.454C65.2088 149.354 61.2068 154.46 54.3528 154.46ZM54.3528 134.22C49.4308 134.22 47.2688 138.084 47.2688 142.454C47.2688 146.824 49.4308 150.78 54.3528 150.78C59.2288 150.78 61.3448 146.824 61.3448 142.454C61.3448 138.084 59.2288 134.22 54.3528 134.22Z" fill="#101214"/>
<path d="M34.0162 123.778H38.1562V154H34.0162V140.936H18.1002V154H13.9602V123.778H18.1002V136.98H34.0162V123.778Z" fill="#101214"/>
<path d="M64.1862 95.9857C64.1862 98.5147 65.3302 100.502 69.9666 101.405C72.6761 102.007 73.2782 102.428 73.2782 103.332C73.2782 104.235 72.6761 104.777 70.7493 104.777C68.5215 104.777 65.8721 103.994 64.126 102.97V107.065C65.5109 107.727 67.3172 108.51 70.7493 108.51C75.5663 108.51 77.4329 106.342 77.4329 103.211M77.4329 103.271C77.4329 100.261 75.8674 98.8759 71.3514 97.9125C68.8827 97.3706 68.2806 96.8287 68.2806 96.046C68.2806 95.0826 69.1838 94.6611 70.8095 94.6611C72.7965 94.6611 74.7233 95.2632 76.5899 96.1062V92.1924C75.2653 91.53 73.2782 91.0483 70.93 91.0483C66.4743 91.0483 64.1862 92.9751 64.1862 96.1062" fill="#101214"/>
<path d="M125.844 91.1685V108.329H129.517V95.2629L131.022 98.695L136.2 108.329H140.776V91.1685H137.164V102.248L135.779 98.9961L131.624 91.1685H125.844Z" fill="#101214"/>
<path d="M102.602 91.1685H98.6279V108.329H102.602V91.1685Z" fill="#101214"/>
<path d="M94.0515 103.211C94.0515 100.2 92.486 98.8154 87.9701 97.852C85.5014 97.3101 84.8993 96.7682 84.8993 95.9854C84.8993 95.022 85.8025 94.6005 87.4282 94.6005C89.4152 94.6005 91.342 95.2027 93.2086 96.0456V92.1318C91.8839 91.4695 89.8969 90.9878 87.5486 90.9878C83.0929 90.9878 80.8048 92.9146 80.8048 96.0456C80.8048 98.5745 81.9489 100.562 86.5852 101.465C89.2948 102.067 89.8969 102.488 89.8969 103.392C89.8969 104.295 89.2948 104.837 87.368 104.837C85.1401 104.837 82.4908 104.054 80.7446 103.03V107.125C82.1295 107.787 83.9359 108.57 87.368 108.57C92.1247 108.57 94.0515 106.402 94.0515 103.211Z" fill="#101214"/>
<path d="M33.2371 91.1685V108.329H41.4259L42.6904 104.596H37.2111V91.1685H33.2371Z" fill="#101214"/>
<path d="M17.0403 91.1685V94.8414H21.4358V108.329H25.47V94.8414H30.2268V91.1685H17.0403Z" fill="#101214"/>
<path d="M11.1995 91.1685H5.96101L0 108.329H4.57613L5.4191 105.439C6.44271 105.74 7.52653 105.92 8.61035 105.92C9.69418 105.92 10.778 105.74 11.8016 105.439L12.6446 108.329H17.2207C17.1605 108.329 11.1995 91.1685 11.1995 91.1685ZM8.55014 102.308C7.76738 102.308 7.04483 102.187 6.3825 102.007L8.55014 94.5403L10.7178 102.007C10.0554 102.187 9.3329 102.308 8.55014 102.308Z" fill="#101214"/>
<path d="M55.5759 91.1685H50.3374L44.3162 108.329H48.8923L49.7353 105.439C50.7589 105.74 51.8427 105.92 52.9265 105.92C54.0103 105.92 55.0942 105.74 56.1178 105.439L56.9607 108.329H61.5369L55.5759 91.1685ZM52.9265 102.308C52.1438 102.308 51.4212 102.187 50.7589 102.007L52.9265 94.5403L55.0942 102.007C54.4318 102.187 53.7093 102.308 52.9265 102.308Z" fill="#101214"/>
<path d="M116.992 91.1685H111.754L105.793 108.329H110.369L111.212 105.439C112.236 105.74 113.319 105.92 114.403 105.92C115.487 105.92 116.571 105.74 117.595 105.439L118.438 108.329H123.014L116.992 91.1685ZM114.403 102.308C113.621 102.308 112.898 102.187 112.236 102.007L114.403 94.5403L116.571 102.007C115.909 102.187 115.126 102.308 114.403 102.308Z" fill="#101214"/>
<path d="M33 18.75C33 8.39466 41.3947 0 51.75 0H89.25C99.6053 0 108 8.39466 108 18.75V56.25C108 66.6053 99.6053 75 89.25 75H51.75C41.3947 75 33 66.6053 33 56.25V18.75Z" fill="#DDDEE1"/>
<g clip-path="url(#clip0_1_5610)">
<path d="M49.9922 33.1055V58.0078H64.6406V43.3594H76.3594V58.0078H91.0078V33.1055L70.5 14.0625L49.9922 33.1055Z" fill="#101214"/>
</g>
<defs>
<clipPath id="clip0_1_5610">
<rect width="70.3125" height="70.3125" fill="white" transform="translate(35.3438 2.34375)"/>
</clipPath>
</defs>
</svg>
