<svg width="118" height="137" viewBox="0 0 118 137" fill="none" xmlns="http://www.w3.org/2000/svg">
<path d="M100.757 116C100.757 121.52 102.965 124.28 107.059 124.28C110.601 124.28 113.775 122.026 113.775 116.92V115.08C113.775 109.974 110.877 107.72 107.519 107.72C103.057 107.72 100.757 110.664 100.757 116ZM113.775 127.5V123.36C112.303 126.396 109.543 127.96 106.001 127.96C99.8833 127.96 96.8013 122.762 96.8013 116C96.8013 109.514 100.021 104.04 106.461 104.04C109.819 104.04 112.395 105.558 113.775 108.548V94.8857H117.731V127.5H113.775Z" fill="#101214"/>
<path d="M87.0862 113.93V127.5H83.2222V104.5H87.0862V108.548C88.4202 105.834 90.7202 103.902 95.2282 104.178V108.042C90.1682 107.536 87.0862 109.054 87.0862 113.93Z" fill="#101214"/>
<path d="M60.2827 116C60.2827 121.52 62.4907 124.28 66.5847 124.28C70.1267 124.28 73.3007 122.026 73.3007 116.92V115.08C73.3007 109.974 70.4027 107.72 67.0447 107.72C62.5827 107.72 60.2827 110.664 60.2827 116ZM73.3007 127.5V123.36C71.8287 126.396 69.0687 127.96 65.5267 127.96C59.4087 127.96 56.3267 122.762 56.3267 116C56.3267 109.514 59.5467 104.04 65.9867 104.04C69.3447 104.04 71.9207 105.558 73.3007 108.548V104.5H77.2567V127.5H73.3007Z" fill="#101214"/>
<path d="M32.1802 117.978V104.5H36.1362V118.392C36.1362 122.532 37.7922 124.372 41.5642 124.372C45.2442 124.372 47.7742 121.934 47.7742 117.288V104.5H51.7302V127.5H47.7742V123.728C46.3022 126.442 43.5882 127.96 40.5062 127.96C35.2162 127.96 32.1802 124.326 32.1802 117.978Z" fill="#101214"/>
<path d="M26.22 125.797C23.828 127.223 19.412 127.959 16.008 127.959C5.612 127.959 0 121.611 0 112.457C0 102.613 6.394 96.7715 17.158 96.7715C19.55 96.7715 22.356 97.0475 25.024 97.9675V102.107C22.724 101.187 20.01 100.773 17.204 100.773C8.234 100.773 4.14 105.235 4.14 112.365C4.14 119.357 8.28 124.003 16.974 124.003C18.4 124.003 20.378 123.865 22.08 123.359V114.941H14.352V110.985H26.22V125.797Z" fill="#101214"/>
<path d="M21.9333 18.75C21.9333 8.39466 30.328 0 40.6833 0H78.1833C88.5387 0 96.9333 8.39466 96.9333 18.75V56.25C96.9333 66.6053 88.5387 75 78.1833 75H40.6833C30.328 75 21.9333 66.6053 21.9333 56.25V18.75Z" fill="#DDDEE1"/>
<g clip-path="url(#clip0_1_7988)">
<path d="M41.1248 34.3219H77.7399C78.792 34.3219 79.3532 33.7608 79.3532 32.7086V20.3633C79.3532 19.3112 78.792 18.75 77.7399 18.75H70.0241C68.9719 18.75 68.4108 19.3112 68.4108 20.3633V26.6061H64.9036V20.3633C64.9036 19.3112 64.3424 18.75 63.2902 18.75H55.5744C54.5223 18.75 53.9611 19.3112 53.9611 20.3633V26.6061H50.4539V20.3633C50.4539 19.3112 49.8928 18.75 48.8406 18.75H41.1248C40.0726 18.75 39.5115 19.3112 39.5115 20.3633V32.7086C39.5115 33.7608 40.0726 34.3219 41.1248 34.3219ZM41.7561 45.1241C40.9845 42.9496 40.4935 40.705 40.3532 38.1097C40.2831 37.1978 40.7039 36.7068 41.6859 36.7068H77.1787C78.1608 36.7068 78.5816 37.1277 78.5816 37.9694C78.4413 40.5647 77.9503 42.9496 77.1086 45.1241C76.6877 46.2464 76.0564 46.7374 74.864 46.7374H44.0007C42.8082 46.7374 42.1769 46.2464 41.7561 45.1241ZM74.2327 50.946C70.8658 55.0845 65.3244 57.75 59.4323 57.75C53.5403 57.75 47.8586 55.0845 44.5618 50.946C43.7201 49.8237 44.141 49.1223 44.9827 49.1223H73.882C74.7237 49.1223 75.1446 49.8237 74.2327 50.946Z" fill="#101214"/>
</g>
<defs>
<clipPath id="clip0_1_7988">
<rect width="39.8417" height="39" fill="white" transform="translate(39.5115 18.75)"/>
</clipPath>
</defs>
</svg>
