<svg width="132" height="137" viewBox="0 0 132 137" fill="none" xmlns="http://www.w3.org/2000/svg">
<path d="M131.296 114.022V127.5H127.34V114.712C127.34 109.974 125.684 107.628 121.912 107.628C118.232 107.628 115.702 110.066 115.702 114.712V127.5H111.746V94.8857H115.702V108.318C117.22 105.604 119.98 104.04 123.292 104.04C128.444 104.04 131.296 107.536 131.296 114.022Z" fill="white"/>
<path d="M107.231 123.36V126.902C105.851 127.638 103.735 127.96 101.619 127.96C93.4313 127.96 89.6133 122.992 89.6133 115.954C89.6133 109.008 93.4313 104.04 101.619 104.04C103.689 104.04 105.299 104.316 107.093 105.144V108.824C105.621 108.134 104.057 107.72 101.895 107.72C95.9153 107.72 93.4773 111.492 93.4773 115.954C93.4773 120.416 95.9613 124.188 101.987 124.188C104.333 124.188 105.805 123.866 107.231 123.36Z" fill="white"/>
<path d="M79.8953 113.93V127.5H76.0312V104.5H79.8953V108.548C81.2293 105.834 83.5293 103.902 88.0373 104.178V108.042C82.9773 107.536 79.8953 109.054 79.8953 113.93Z" fill="white"/>
<path d="M53.0927 116C53.0927 121.52 55.3007 124.28 59.3947 124.28C62.9367 124.28 66.1107 122.026 66.1107 116.92V115.08C66.1107 109.974 63.2127 107.72 59.8547 107.72C55.3927 107.72 53.0927 110.664 53.0927 116ZM66.1107 127.5V123.36C64.6387 126.396 61.8787 127.96 58.3367 127.96C52.2187 127.96 49.1367 122.762 49.1367 116C49.1367 109.514 52.3567 104.04 58.7967 104.04C62.1547 104.04 64.7307 105.558 66.1107 108.548V104.5H70.0667V127.5H66.1107Z" fill="white"/>
<path d="M35.6876 107.628C31.5016 107.628 29.3856 110.342 28.9716 114.344H41.8056C41.5756 110.066 39.6436 107.628 35.6876 107.628ZM44.5196 126.58C42.6336 127.592 39.7356 127.96 37.3896 127.96C28.7876 127.96 25.0156 122.992 25.0156 115.954C25.0156 109.008 28.8796 104.04 35.8716 104.04C42.9556 104.04 45.8076 108.962 45.8076 115.954V117.748H29.0176C29.5696 121.658 32.0996 124.188 37.5276 124.188C40.1956 124.188 42.4496 123.682 44.5196 122.946V126.58Z" fill="white"/>
<path d="M21.528 119.173C21.528 124.417 18.4 127.959 10.902 127.959C5.06 127.959 2.346 126.809 0 125.613V121.381C2.806 122.853 7.13 123.911 11.132 123.911C15.686 123.911 17.388 122.117 17.388 119.449C17.388 116.781 15.732 115.355 9.982 113.975C3.174 112.319 0.138 109.973 0.138 105.005C0.138 100.313 3.726 96.8174 10.764 96.8174C15.134 96.8174 17.94 97.8754 20.01 99.0254V103.165C16.974 101.417 13.708 100.865 10.58 100.865C6.624 100.865 4.278 102.245 4.278 105.005C4.278 107.489 6.21 108.731 11.546 110.065C17.94 111.675 21.528 113.745 21.528 119.173Z" fill="white"/>
<path d="M28.9688 18.75C28.9688 8.39466 37.3634 0 47.7188 0H85.2188C95.5741 0 103.969 8.39466 103.969 18.75V56.25C103.969 66.6053 95.5741 75 85.2188 75H47.7188C37.3634 75 28.9688 66.6053 28.9688 56.25V18.75Z" fill="white"/>
<path fill-rule="evenodd" clip-rule="evenodd" d="M63.4531 52.542C53.6371 52.542 45.6797 44.5846 45.6797 34.7686C45.6797 24.9526 53.6371 16.9951 63.4531 16.9951C73.2691 16.9951 81.2266 24.9526 81.2266 34.7686C81.2266 37.9566 80.3872 40.9485 78.9175 43.5355L89.3598 53.9779L82.5926 60.7451L72.1308 50.2833C69.5643 51.7218 66.6045 52.542 63.4531 52.542ZM62.6147 23.7838L61.8714 25.6726C60.8152 28.3564 60.2871 29.6984 59.3126 30.7085C58.3381 31.7187 57.016 32.2946 54.3718 33.4465L53.2395 33.9397V35.5025L54.3713 35.9955C57.0157 37.1474 58.338 37.7233 59.3125 38.7335C60.2871 39.7438 60.8152 41.0858 61.8714 43.7699L62.6147 45.6588H64.177L64.9205 43.7694C65.9767 41.0856 66.5048 39.7436 67.4793 38.7335C68.4538 37.7233 69.7759 37.1474 72.4202 35.9955L73.552 35.5025V33.9397L72.4197 33.4465C69.7757 32.2946 68.4537 31.7187 67.4792 30.7086C66.5048 29.6985 65.9767 28.3567 64.9205 25.673L64.177 23.7838H62.6147Z" fill="#101214"/>
</svg>
