<svg width="48" height="48" viewBox="0 0 48 48" fill="none" xmlns="http://www.w3.org/2000/svg">
<path d="M0 12C0 5.37258 5.37258 0 12 0H36C42.6274 0 48 5.37258 48 12V36C48 42.6274 42.6274 48 36 48H12C5.37258 48 0 42.6274 0 36V12Z" fill="white"/>
<path fill-rule="evenodd" clip-rule="evenodd" d="M22.0664 33.625C15.7842 33.625 10.6914 28.5322 10.6914 22.25C10.6914 15.9678 15.7842 10.875 22.0664 10.875C28.3486 10.875 33.4414 15.9678 33.4414 22.25C33.4414 24.2903 32.9042 26.2052 31.9636 27.8608L38.6467 34.544L34.3157 38.875L27.6201 32.1794C25.9776 33.1001 24.0833 33.625 22.0664 33.625ZM21.5298 15.2197L21.0541 16.4286C20.3781 18.1462 20.0401 19.0051 19.4165 19.6516C18.7928 20.2981 17.9466 20.6667 16.2543 21.4039L15.5297 21.7196V22.7197L16.254 23.0352C17.9465 23.7724 18.7927 24.141 19.4164 24.7876C20.0402 25.4341 20.3781 26.293 21.0541 28.0109L21.5298 29.2197H22.5297L23.0055 28.0106C23.6815 26.2929 24.0195 25.434 24.6432 24.7876C25.2669 24.1411 26.113 23.7725 27.8053 23.0353L28.5297 22.7197V21.7196L27.805 21.4039C26.1128 20.6667 25.2668 20.2981 24.6431 19.6516C24.0195 19.0052 23.6815 18.1464 23.0055 16.4289L22.5297 15.2197H21.5298Z" fill="#101214"/>
</svg>
