<svg width="112" height="137" viewBox="0 0 112 137" fill="none" xmlns="http://www.w3.org/2000/svg">
<path d="M111.49 121.245C111.49 125.063 109.006 127.961 102.842 127.961C99.3923 127.961 96.5863 127.179 94.8383 126.259V122.073C96.8163 123.223 100.128 124.327 103.026 124.327C106.062 124.327 107.626 123.085 107.626 121.291C107.626 119.543 106.292 118.531 101.922 117.473C96.8163 116.231 94.6543 114.253 94.6543 110.481C94.6543 106.479 97.7363 104.041 102.98 104.041C105.97 104.041 108.684 104.777 110.386 105.697V109.791C107.626 108.411 105.372 107.675 102.934 107.675C100.036 107.675 98.4723 108.687 98.4723 110.481C98.4723 112.091 99.5763 113.103 103.808 114.115C108.914 115.357 111.49 117.243 111.49 121.245Z" fill="white"/>
<path d="M91.815 127.455C91.493 127.547 90.803 127.639 89.791 127.639C86.019 127.639 83.627 125.845 83.627 121.613V94.8867H87.583V121.153C87.583 123.223 88.963 123.959 90.665 123.959C91.079 123.959 91.355 123.959 91.815 123.913V127.455Z" fill="white"/>
<path d="M60.6865 116.001C60.6865 121.521 62.8945 124.281 66.9885 124.281C70.5305 124.281 73.7045 122.027 73.7045 116.921V115.081C73.7045 109.975 70.8065 107.721 67.4485 107.721C62.9865 107.721 60.6865 110.665 60.6865 116.001ZM73.7045 127.501V123.361C72.2325 126.397 69.4725 127.961 65.9305 127.961C59.8125 127.961 56.7305 122.763 56.7305 116.001C56.7305 109.515 59.9505 104.041 66.3905 104.041C69.7485 104.041 72.3245 105.559 73.7045 108.549V104.501H77.6605V127.501H73.7045Z" fill="white"/>
<path d="M42.657 127.961C35.757 127.961 31.709 122.855 31.709 115.955C31.709 109.055 35.757 104.041 42.657 104.041C49.511 104.041 53.513 109.055 53.513 115.955C53.513 122.855 49.511 127.961 42.657 127.961ZM42.657 107.721C37.735 107.721 35.573 111.585 35.573 115.955C35.573 120.325 37.735 124.281 42.657 124.281C47.533 124.281 49.649 120.325 49.649 115.955C49.649 111.585 47.533 107.721 42.657 107.721Z" fill="white"/>
<path d="M26.22 125.798C23.828 127.224 19.412 127.96 16.008 127.96C5.612 127.96 0 121.612 0 112.458C0 102.614 6.394 96.7725 17.158 96.7725C19.55 96.7725 22.356 97.0485 25.024 97.9685V102.108C22.724 101.188 20.01 100.774 17.204 100.774C8.234 100.774 4.14 105.236 4.14 112.366C4.14 119.358 8.28 124.004 16.974 124.004C18.4 124.004 20.378 123.866 22.08 123.36V114.942H14.352V110.986H26.22V125.798Z" fill="white"/>
<path d="M18.1152 18.75C18.1152 8.39466 26.5099 0 36.8652 0H74.3652C84.7206 0 93.1152 8.39466 93.1152 18.75V56.25C93.1152 66.6053 84.7206 75 74.3652 75H36.8652C26.5099 75 18.1152 66.6053 18.1152 56.25V18.75Z" fill="#DDDEE1"/>
<g clip-path="url(#clip0_55714_38681)">
<path d="M63.4888 37.5C63.4888 41.8484 59.9637 45.3735 55.6152 45.3735C51.2668 45.3735 47.7417 41.8484 47.7417 37.5C47.7417 33.1516 51.2668 29.6265 55.6152 29.6265C59.9637 29.6265 63.4888 33.1516 63.4888 37.5Z" fill="#101214"/>
<path fill-rule="evenodd" clip-rule="evenodd" d="M55.6152 59.4727C67.7504 59.4727 77.5879 49.6352 77.5879 37.5C77.5879 25.3648 67.7504 15.5273 55.6152 15.5273C43.4801 15.5273 33.6426 25.3648 33.6426 37.5C33.6426 49.6352 43.4801 59.4727 55.6152 59.4727ZM69.3481 37.5C69.3481 45.0845 63.1997 51.2329 55.6152 51.2329C48.0308 51.2329 41.8823 45.0845 41.8823 37.5C41.8823 29.9155 48.0308 23.7671 55.6152 23.7671C63.1997 23.7671 69.3481 29.9155 69.3481 37.5Z" fill="#101214"/>
</g>
<defs>
<clipPath id="clip0_55714_38681">
<rect width="70.3125" height="70.3125" fill="white" transform="translate(20.459 2.34375)"/>
</clipPath>
</defs>
</svg>
